<svg xmlns="http://www.w3.org/2000/svg" viewBox="0 0 800 600" width="800" height="600">
  <rect width="800" height="600" fill="#0f172a"/>
  <circle cx="120" cy="100" r="3" fill="#fff"/>
  <circle cx="680" cy="160" r="3" fill="#fff"/>
  <circle cx="240" cy="220" r="2" fill="#fff"/>
  <circle cx="620" cy="80" r="2" fill="#fff"/>
  <circle cx="500" cy="180" r="2" fill="#fff"/>
  <ellipse cx="400" cy="340" rx="80" ry="160" fill="#e5e7eb"/>
  <polygon points="320,360 280,460 360,420" fill="#ef4444"/>
  <polygon points="480,360 520,460 440,420" fill="#ef4444"/>
  <polygon points="370,180 400,140 430,180" fill="#f59e0b"/>
  <circle cx="400" cy="280" r="50" fill="#fbbf24"/>
  <polygon points="360,250 350,220 380,245" fill="#fbbf24"/>
  <polygon points="440,250 450,220 420,245" fill="#fbbf24"/>
  <circle cx="385" cy="280" r="6" fill="#111"/>
  <circle cx="415" cy="280" r="6" fill="#111"/>
  <path d="M388 300 L400 308 L412 300" stroke="#111" stroke-width="3" fill="none"/>
  <ellipse cx="400" cy="540" rx="60" ry="30" fill="#f97316" opacity="0.8"/>
  <ellipse cx="400" cy="520" rx="40" ry="20" fill="#fde047"/>
</svg>
